# xmcd
#
# Track frame offsets: 
#        150
#        17707
#        34813
#        50059
#        69997
#        87239
#        103592
#        122757
#        142281
#        155946
#        174940
#        196873
#        212869
#        232731
#        265628
#        285458
#
# Disc length: 4009 seconds
#
# Revision: 0
# Processed by: cddbd v1.5.2PL0 Copyright (c) Steve Scherf et al.
# Submitted via: ExactAudioCopy v1.0b1
#
DISCID=e20fa710
DTITLE=Maurane - 50 plus belles chansons
DYEAR=2008
DGENRE=Country
TTITLE0=Toutes les mamas
TTITLE1=Tout pour un seul homme
TTITLE2=Enfant des étoiles
TTITLE3=Fais soleil
TTITLE4=Balancier
TTITLE5=Ou es-tu ?
TTITLE6=Du mal
TTITLE7=Mentir
TTITLE8=Ami ou ennemi
TTITLE9=Ca casse
TTITLE10=Sur un prélude de Bach
TTITLE11=Boum
TTITLE12=Imagination
TTITLE13=Medley -Qui est Marie-Jeanne-Les uns contre les autres
TTITLE14=Tant c'était bon
TTITLE15=Danser
EXTD=
EXTT0=
EXTT1=
EXTT2=
EXTT3=
EXTT4=
EXTT5=
EXTT6=
EXTT7=
EXTT8=
EXTT9=
EXTT10=
EXTT11=
EXTT12=
EXTT13=
EXTT14=
EXTT15=
PLAYORDER=
